<?xml version="1.0" encoding="UTF-8" standalone="no" ?>
<!DOCTYPE svg PUBLIC "-//W3C//DTD SVG 1.1//EN" "http://www.w3.org/Graphics/SVG/1.1/DTD/svg11.dtd">
<svg xmlns="http://www.w3.org/2000/svg" xmlns:xlink="http://www.w3.org/1999/xlink" version="1.1" width="1080" height="1080" viewBox="0 0 1080 1080" xml:space="preserve">
<desc>Created with Fabric.js 5.2.4</desc>
<defs>
</defs>
<g transform="matrix(1 0 0 1 540 540)" id="0784b88a-9b24-4ef2-9384-2e03f3c5fa8d"  >
<rect style="stroke: none; stroke-width: 1; stroke-dasharray: none; stroke-linecap: butt; stroke-dashoffset: 0; stroke-linejoin: miter; stroke-miterlimit: 4; fill: rgb(255,255,255); fill-rule: nonzero; opacity: 1; visibility: hidden;" vector-effect="non-scaling-stroke"  x="-540" y="-540" rx="0" ry="0" width="1080" height="1080" />
</g>
<g transform="matrix(1 0 0 1 540 540)" id="c56efa0b-adbc-4cbc-8263-4b1b46593655"  >
</g>
<g transform="matrix(1 0 0 1 540 540)"  >
<g style="" vector-effect="non-scaling-stroke"   >
		<g transform="matrix(50 0 0 50 -225 0)"  >
<path style="stroke: none; stroke-width: 1; stroke-dasharray: none; stroke-linecap: butt; stroke-dashoffset: 0; stroke-linejoin: miter; stroke-miterlimit: 4; fill: rgb(237,125,49); fill-rule: nonzero; opacity: 1;" vector-effect="non-scaling-stroke"  transform=" translate(-3.5, -8)" d="M 2.1 3.1 C 2.3000000000000003 4.4 2.5 4.7 2.5 6 C 2.5 6.8 1 7.5 1 7.5 L 1 8.5 C 1 8.5 2.5 9.2 2.5 10 C 2.5 11.3 2.3 11.6 2.1 12.9 C 1.8 15 2.9000000000000004 16 3.9000000000000004 16 C 4.9 16 6 16 6 16 L 6 14 C 6 14 4.2 14.2 4.2 13 C 4.2 12.1 4.4 12.1 4.6000000000000005 10.1 C 4.7 9.2 4.1000000000000005 8.5 3.5000000000000004 8 C 4.1000000000000005 7.5 4.7 6.9 4.6000000000000005 6 C 4.300000000000001 4 4.2 4 4.2 3.1 C 4.2 1.9000000000000001 6 2 6 2 L 6 0 C 6 0 5 0 3.9 0 C 2.8 0 1.7999999999999998 1 2.0999999999999996 3.1 z" stroke-linecap="round" />
</g>
		<g transform="matrix(50 0 0 50 225 0)"  >
<path style="stroke: none; stroke-width: 1; stroke-dasharray: none; stroke-linecap: butt; stroke-dashoffset: 0; stroke-linejoin: miter; stroke-miterlimit: 4; fill: rgb(237,125,49); fill-rule: nonzero; opacity: 1;" vector-effect="non-scaling-stroke"  transform=" translate(-12.5, -8)" d="M 13.9 3.1 C 13.700000000000001 4.4 13.5 4.7 13.5 6 C 13.5 6.8 15 7.5 15 7.5 L 15 8.5 C 15 8.5 13.5 9.2 13.5 10 C 13.5 11.3 13.7 11.6 13.9 12.9 C 14.200000000000001 15 13.1 16 12.1 16 C 11.1 16 10 16 10 16 L 10 14 C 10 14 11.8 14.2 11.8 13 C 11.8 12.1 11.600000000000001 12.1 11.4 10.1 C 11.3 9.2 11.9 8.5 12.5 8 C 11.9 7.5 11.3 6.9 11.4 6 C 11.6 4 11.8 4 11.8 3.1 C 11.8 1.9000000000000001 10 2 10 2 L 10 0 C 10 0 11 0 12.1 0 C 13.2 0 14.2 1 13.9 3.1 z" stroke-linecap="round" />
</g>
</g>
</g>
<g transform="matrix(NaN NaN NaN NaN 0 0)"  >
<g style=""   >
</g>
</g>
<g transform="matrix(NaN NaN NaN NaN 0 0)"  >
<g style=""   >
</g>
</g>
</svg>